<svg xmlns="http://www.w3.org/2000/svg" xmlns:xlink="http://www.w3.org/1999/xlink" width="239" zoomAndPan="magnify" viewBox="0 0 179.25 233.999995" height="312" preserveAspectRatio="xMidYMid meet" version="1.2"><defs><clipPath id="4807ba9d59"><path d="M 12 0.488281 L 161 0.488281 L 161 168 L 12 168 Z M 12 0.488281 "/></clipPath><clipPath id="4e27a324f4"><path d="M 20 7 L 161 7 L 161 168 L 20 168 Z M 20 7 "/></clipPath><clipPath id="23dbf68a55"><path d="M 90.089844 0.59375 L 118.777344 0.488281 C 118.261719 20.308594 157.132812 57.566406 160.25 61.820312 C 144.242188 63.792969 129.277344 65.035156 118.777344 56.316406 L 118.675781 116.09375 C 118.46875 132.28125 111.503906 144.320312 103.082031 152.308594 C 102.355469 153.035156 101.628906 153.761719 100.796875 154.386719 C 89.988281 163.515625 79.386719 167.773438 64.835938 167.667969 C 50.492188 167.460938 39.679688 162.066406 30.535156 154.175781 C 23.675781 148.265625 18.164062 140.585938 15.046875 129.996094 C 8.289062 106.753906 17.019531 84.128906 36.355469 70.953125 C 36.667969 70.640625 37.082031 70.328125 37.496094 70.121094 C 46.332031 63.996094 60.054688 60.367188 72.835938 62.441406 L 72.835938 91.707031 C 64 89.421875 56.101562 91.394531 50.285156 96.273438 C 50.179688 96.273438 50.179688 96.375 50.074219 96.480469 C 44.464844 101.253906 41.238281 108.308594 41.65625 116.300781 C 42.695312 130.621094 54.542969 139.546875 67.433594 138.925781 C 67.433594 138.925781 67.535156 138.925781 67.535156 138.925781 C 80.007812 137.675781 90.300781 127.507812 89.988281 113.808594 Z M 90.089844 0.59375 "/></clipPath></defs><g id="0f99d7ee12"><path style=" stroke:none;fill-rule:evenodd;fill:#e55d2a;fill-opacity:1;" d="M 96.523438 7.855469 L 125.214844 7.75 C 124.695312 27.570312 163.566406 64.828125 166.683594 69.082031 C 150.679688 71.050781 135.710938 72.296875 125.214844 63.578125 L 125.109375 123.355469 C 124.902344 139.542969 117.9375 151.582031 109.515625 159.570312 C 108.789062 160.296875 108.0625 161.023438 107.230469 161.644531 C 96.421875 170.777344 85.820312 175.035156 71.269531 174.929688 C 56.925781 174.722656 46.113281 169.328125 36.96875 161.4375 C 30.109375 155.523438 24.597656 147.84375 21.480469 137.257812 C 14.726562 114.015625 23.457031 91.390625 42.789062 78.214844 C 43.101562 77.902344 43.515625 77.589844 43.933594 77.382812 C 52.765625 71.261719 66.488281 67.628906 79.273438 69.703125 L 79.273438 98.96875 C 70.4375 96.683594 62.539062 98.65625 56.71875 103.53125 C 56.613281 103.53125 56.613281 103.636719 56.507812 103.742188 C 50.898438 108.515625 47.671875 115.574219 48.089844 123.5625 C 49.128906 137.882812 60.976562 146.808594 73.867188 146.1875 C 73.867188 146.1875 73.972656 146.1875 73.972656 146.1875 C 86.445312 144.9375 96.734375 134.769531 96.421875 121.070312 Z M 96.523438 7.855469 "/><g clip-rule="nonzero" clip-path="url(#4807ba9d59)"><path style=" stroke:none;fill-rule:evenodd;fill:#dd7b24;fill-opacity:1;" d="M 90.089844 0.59375 L 118.78125 0.488281 C 118.261719 20.308594 157.132812 57.566406 160.25 61.820312 C 144.246094 63.792969 129.277344 65.035156 118.78125 56.320312 L 118.671875 116.09375 C 118.46875 132.28125 111.503906 144.320312 103.082031 152.308594 C 102.355469 153.035156 101.628906 153.761719 100.796875 154.382812 C 89.988281 163.519531 79.386719 167.773438 64.835938 167.667969 C 50.492188 167.460938 39.679688 162.066406 30.535156 154.179688 C 23.675781 148.265625 18.164062 140.582031 15.046875 129.996094 C 8.289062 106.753906 17.023438 84.132812 36.355469 70.953125 C 36.667969 70.640625 37.082031 70.328125 37.496094 70.121094 C 46.332031 64 60.054688 60.367188 72.835938 62.441406 L 72.835938 91.707031 C 64.003906 89.421875 56.101562 91.394531 50.28125 96.269531 C 50.179688 96.269531 50.179688 96.378906 50.074219 96.480469 C 44.464844 101.253906 41.238281 108.3125 41.65625 116.300781 C 42.695312 130.621094 54.542969 139.546875 67.433594 138.925781 C 67.433594 138.925781 67.535156 138.925781 67.535156 138.925781 C 80.007812 137.679688 90.300781 127.507812 89.988281 113.808594 Z M 90.089844 0.59375 "/></g><g clip-rule="nonzero" clip-path="url(#4e27a324f4)"><g clip-rule="evenodd" clip-path="url(#23dbf68a55)"><path style=" stroke:none;fill-rule:evenodd;fill:#ffa961;fill-opacity:1;" d="M 97.609375 7.863281 L 126.300781 7.757812 C 125.777344 27.578125 164.652344 64.832031 167.769531 69.089844 C 151.765625 71.058594 136.796875 72.304688 126.300781 63.585938 L 126.191406 123.363281 C 125.984375 139.550781 119.023438 151.589844 110.601562 159.578125 C 109.875 160.304688 109.148438 161.03125 108.316406 161.652344 C 97.507812 170.785156 86.90625 175.042969 72.351562 174.9375 C 58.007812 174.730469 47.199219 169.332031 38.054688 161.445312 C 31.195312 155.53125 25.683594 147.851562 22.566406 137.265625 C 15.808594 114.023438 24.542969 91.398438 43.875 78.222656 C 44.1875 77.910156 44.601562 77.597656 45.015625 77.390625 C 53.851562 71.269531 67.574219 67.636719 80.355469 69.710938 L 80.355469 98.976562 C 71.523438 96.691406 63.621094 98.664062 57.800781 103.539062 C 57.699219 103.539062 57.699219 103.644531 57.59375 103.75 C 51.980469 108.523438 48.757812 115.582031 49.175781 123.570312 C 50.214844 137.890625 62.0625 146.816406 74.953125 146.195312 C 74.953125 146.195312 75.054688 146.195312 75.054688 146.195312 C 87.527344 144.945312 97.820312 134.777344 97.507812 121.078125 Z M 97.609375 7.863281 "/></g></g><g style="fill:#ffffff;fill-opacity:1;"><g transform="translate(9.428032, 217.076119)"><path style="stroke:none" d="M 10.984375 0 L 6.421875 0 L 6.421875 -17.671875 L 0.609375 -17.671875 L 0.609375 -21.453125 L 16.8125 -21.453125 L 16.8125 -17.671875 L 10.984375 -17.671875 Z M 10.984375 0 "/></g></g><g style="fill:#ffffff;fill-opacity:1;"><g transform="translate(26.83682, 217.076119)"><path style="stroke:none" d="M 2.15625 -20.65625 C 2.15625 -22.113281 2.96875 -22.84375 4.59375 -22.84375 C 6.21875 -22.84375 7.03125 -22.113281 7.03125 -20.65625 C 7.03125 -19.957031 6.828125 -19.414062 6.421875 -19.03125 C 6.015625 -18.644531 5.40625 -18.453125 4.59375 -18.453125 C 2.96875 -18.453125 2.15625 -19.1875 2.15625 -20.65625 Z M 6.828125 0 L 2.34375 0 L 2.34375 -16.40625 L 6.828125 -16.40625 Z M 6.828125 0 "/></g></g><g style="fill:#ffffff;fill-opacity:1;"><g transform="translate(36.010928, 217.076119)"><path style="stroke:none" d="M 6.65625 -8.921875 L 8.609375 -11.421875 L 13.203125 -16.40625 L 18.25 -16.40625 L 11.734375 -9.296875 L 18.640625 0 L 13.46875 0 L 8.75 -6.65625 L 6.828125 -5.109375 L 6.828125 0 L 2.34375 0 L 2.34375 -22.84375 L 6.828125 -22.84375 L 6.828125 -12.65625 L 6.59375 -8.921875 Z M 6.65625 -8.921875 "/></g></g><g style="fill:#ffffff;fill-opacity:1;"><g transform="translate(54.652716, 217.076119)"><path style="stroke:none" d="M 10.984375 0 L 6.421875 0 L 6.421875 -17.671875 L 0.609375 -17.671875 L 0.609375 -21.453125 L 16.8125 -21.453125 L 16.8125 -17.671875 L 10.984375 -17.671875 Z M 10.984375 0 "/></g></g><g style="fill:#ffffff;fill-opacity:1;"><g transform="translate(72.061503, 217.076119)"><path style="stroke:none" d="M 5.921875 -8.234375 C 5.921875 -6.609375 6.1875 -5.378906 6.71875 -4.546875 C 7.25 -3.710938 8.117188 -3.296875 9.328125 -3.296875 C 10.515625 -3.296875 11.367188 -3.707031 11.890625 -4.53125 C 12.421875 -5.363281 12.6875 -6.597656 12.6875 -8.234375 C 12.6875 -9.859375 12.421875 -11.078125 11.890625 -11.890625 C 11.359375 -12.703125 10.492188 -13.109375 9.296875 -13.109375 C 8.097656 -13.109375 7.234375 -12.703125 6.703125 -11.890625 C 6.179688 -11.085938 5.921875 -9.867188 5.921875 -8.234375 Z M 17.265625 -8.234375 C 17.265625 -5.566406 16.554688 -3.476562 15.140625 -1.96875 C 13.734375 -0.457031 11.773438 0.296875 9.265625 0.296875 C 7.691406 0.296875 6.300781 -0.046875 5.09375 -0.734375 C 3.882812 -1.429688 2.957031 -2.425781 2.3125 -3.71875 C 1.664062 -5.007812 1.34375 -6.515625 1.34375 -8.234375 C 1.34375 -10.910156 2.039062 -12.992188 3.4375 -14.484375 C 4.84375 -15.972656 6.8125 -16.71875 9.34375 -16.71875 C 10.925781 -16.71875 12.316406 -16.375 13.515625 -15.6875 C 14.722656 -15.007812 15.648438 -14.023438 16.296875 -12.734375 C 16.941406 -11.453125 17.265625 -9.953125 17.265625 -8.234375 Z M 17.265625 -8.234375 "/></g></g><g style="fill:#ffffff;fill-opacity:1;"><g transform="translate(90.673934, 217.076119)"><path style="stroke:none" d="M 6.65625 -8.921875 L 8.609375 -11.421875 L 13.203125 -16.40625 L 18.25 -16.40625 L 11.734375 -9.296875 L 18.640625 0 L 13.46875 0 L 8.75 -6.65625 L 6.828125 -5.109375 L 6.828125 0 L 2.34375 0 L 2.34375 -22.84375 L 6.828125 -22.84375 L 6.828125 -12.65625 L 6.59375 -8.921875 Z M 6.65625 -8.921875 "/></g></g><g style="fill:#ffffff;fill-opacity:1;"><g transform="translate(109.315722, 217.076119)"><path style="stroke:none" d=""/></g></g><g style="fill:#ffffff;fill-opacity:1;"><g transform="translate(117.129736, 217.076119)"><path style="stroke:none" d="M 16.4375 0 L 13.765625 -6.828125 L 5.171875 -6.828125 L 2.53125 0 L 0 0 L 8.484375 -21.546875 L 10.578125 -21.546875 L 19.03125 0 Z M 12.984375 -9.078125 L 10.5 -15.71875 C 10.175781 -16.5625 9.84375 -17.59375 9.5 -18.8125 C 9.28125 -17.875 8.972656 -16.84375 8.578125 -15.71875 L 6.046875 -9.078125 Z M 12.984375 -9.078125 "/></g></g><g style="fill:#ffffff;fill-opacity:1;"><g transform="translate(136.153167, 217.076119)"><path style="stroke:none" d="M 13.53125 -2.15625 L 13.40625 -2.15625 C 12.28125 -0.519531 10.597656 0.296875 8.359375 0.296875 C 6.253906 0.296875 4.613281 -0.421875 3.4375 -1.859375 C 2.269531 -3.296875 1.6875 -5.34375 1.6875 -8 C 1.6875 -10.65625 2.273438 -12.710938 3.453125 -14.171875 C 4.628906 -15.640625 6.265625 -16.375 8.359375 -16.375 C 10.535156 -16.375 12.207031 -15.582031 13.375 -14 L 13.5625 -14 L 13.453125 -15.15625 L 13.40625 -16.296875 L 13.40625 -22.84375 L 15.84375 -22.84375 L 15.84375 0 L 13.859375 0 Z M 8.65625 -1.75 C 10.320312 -1.75 11.53125 -2.203125 12.28125 -3.109375 C 13.03125 -4.015625 13.40625 -5.472656 13.40625 -7.484375 L 13.40625 -8 C 13.40625 -10.28125 13.023438 -11.90625 12.265625 -12.875 C 11.503906 -13.851562 10.289062 -14.34375 8.625 -14.34375 C 7.195312 -14.34375 6.101562 -13.785156 5.34375 -12.671875 C 4.59375 -11.566406 4.21875 -10 4.21875 -7.96875 C 4.21875 -5.914062 4.59375 -4.363281 5.34375 -3.3125 C 6.09375 -2.269531 7.195312 -1.75 8.65625 -1.75 Z M 8.65625 -1.75 "/></g></g><g style="fill:#ffffff;fill-opacity:1;"><g transform="translate(154.574776, 217.076119)"><path style="stroke:none" d="M 12.96875 -4.390625 C 12.96875 -2.890625 12.40625 -1.734375 11.28125 -0.921875 C 10.164062 -0.109375 8.601562 0.296875 6.59375 0.296875 C 4.457031 0.296875 2.789062 -0.0390625 1.59375 -0.71875 L 1.59375 -2.984375 C 2.375 -2.585938 3.207031 -2.273438 4.09375 -2.046875 C 4.976562 -1.828125 5.832031 -1.71875 6.65625 -1.71875 C 7.925781 -1.71875 8.898438 -1.921875 9.578125 -2.328125 C 10.265625 -2.734375 10.609375 -3.351562 10.609375 -4.1875 C 10.609375 -4.8125 10.335938 -5.34375 9.796875 -5.78125 C 9.253906 -6.226562 8.195312 -6.757812 6.625 -7.375 C 5.125 -7.925781 4.054688 -8.410156 3.421875 -8.828125 C 2.796875 -9.242188 2.328125 -9.710938 2.015625 -10.234375 C 1.710938 -10.765625 1.5625 -11.398438 1.5625 -12.140625 C 1.5625 -13.453125 2.09375 -14.484375 3.15625 -15.234375 C 4.21875 -15.992188 5.679688 -16.375 7.546875 -16.375 C 9.273438 -16.375 10.96875 -16.023438 12.625 -15.328125 L 11.765625 -13.34375 C 10.140625 -14.007812 8.675781 -14.34375 7.375 -14.34375 C 6.21875 -14.34375 5.34375 -14.160156 4.75 -13.796875 C 4.164062 -13.429688 3.875 -12.929688 3.875 -12.296875 C 3.875 -11.867188 3.984375 -11.503906 4.203125 -11.203125 C 4.421875 -10.898438 4.773438 -10.609375 5.265625 -10.328125 C 5.753906 -10.054688 6.695312 -9.660156 8.09375 -9.140625 C 10 -8.453125 11.285156 -7.753906 11.953125 -7.046875 C 12.628906 -6.335938 12.96875 -5.453125 12.96875 -4.390625 Z M 12.96875 -4.390625 "/></g></g></g></svg>